<?xml version="1.0" encoding="utf-8"?>
<!-- Generator: Adobe Illustrator 28.0.0, SVG Export Plug-In . SVG Version: 6.00 Build 0)  -->
<svg version="1.1" id="Layer_1" xmlns="http://www.w3.org/2000/svg" xmlns:xlink="http://www.w3.org/1999/xlink" x="0px" y="0px"
	 viewBox="0 0 30 30" style="enable-background:new 0 0 30 30;" xml:space="preserve">
<style type="text/css">
	.st0{fill:#FF6B00;}
</style>
<g>
	<path class="st0" d="M15,30c-4,0-7.8-1.6-10.6-4.4S0,19,0,15S1.6,7.2,4.4,4.4S11,0,15,0s7.8,1.6,10.6,4.4S30,11,30,15
		s-1.6,7.8-4.4,10.6S19,30,15,30z M15,1.7C7.6,1.7,1.7,7.6,1.7,15s6,13.3,13.3,13.3c7.4,0,13.3-6,13.3-13.3
		C28.3,7.6,22.4,1.7,15,1.7z"/>
	<path class="st0" d="M22.8,14.2h-6.7V7.5c0-0.2-0.2-0.3-0.4-0.3h-1.3c-0.2,0-0.3,0.2-0.3,0.3v6.7H7.5c-0.2,0-0.3,0.2-0.3,0.4v1.3
		c0,0.2,0.2,0.4,0.3,0.4h6.7V23c0,0.2,0.2,0.4,0.3,0.4h1.3c0.2,0,0.4-0.2,0.4-0.4v-6.7h6.7c0.2,0,0.4-0.2,0.4-0.4v-1.3
		C23.1,14.3,22.9,14.2,22.8,14.2z"/>
</g>
</svg>
