<svg width="19" height="34" viewBox="0 0 19 34" fill="none" xmlns="http://www.w3.org/2000/svg">
<g clip-path="url(#clip0_108_1600)">
<path d="M6.12944 33.8583C11.0012 34.7792 15.2186 31.1667 15.2186 26.5625C15.2186 24.1542 13.9825 21.9583 12.0919 20.6125V4.39167C12.0919 1.98333 10.1287 0 7.58371 0C5.03874 0 3.07548 1.98333 3.07548 4.39167V20.6125C0.821364 22.2417 -0.487476 25.0042 0.166944 28.1208C0.748651 30.9542 3.14819 33.2917 6.12944 33.8583ZM4.02075 21.9583L4.67517 21.4625V4.4625C4.67517 2.90417 5.98401 1.7 7.51099 1.7C9.03797 1.7 10.4195 2.975 10.4195 4.4625V21.4625L11.0739 21.9583C12.6009 23.0208 13.4735 24.7917 13.4735 26.6333C13.4735 28.1917 12.8191 29.6792 11.7284 30.7417C10.565 31.8042 9.11069 32.4417 7.51099 32.4417C4.52975 32.4417 2.20292 30.3875 1.69392 27.8375C1.33036 25.5 2.20292 23.2333 4.02075 21.9583Z" fill="black"/>
<path d="M7.58412 30.7413C8.74753 30.7413 9.83823 30.3163 10.6381 29.5372C11.4379 28.758 11.8742 27.6955 11.8742 26.5622C11.8742 23.7288 9.40195 22.808 8.74753 22.2413V10.2705H6.34799V22.2413C5.839 22.808 2.63961 23.9413 3.36674 27.4122C3.73031 29.2538 5.40272 30.7413 7.58412 30.7413Z" fill="black"/>
<path d="M18.1273 4.81641H13.9827V6.44557H18.1273C18.5636 6.44557 18.9272 6.09141 18.9272 5.66641C18.9999 5.17057 18.6363 4.81641 18.1273 4.81641Z" fill="black"/>
<path d="M17.3275 9.91686C17.3275 9.49186 16.964 9.1377 16.5277 9.1377H14.0554V10.7669H16.5277C16.964 10.696 17.3275 10.3419 17.3275 9.91686Z" fill="black"/>
<path d="M18.9999 14.1669C18.9999 13.7419 18.6364 13.3877 18.2001 13.3877H14.0554V15.0169H18.2001C18.6364 15.0169 18.9999 14.5919 18.9999 14.1669Z" fill="black"/>
</g>
<defs>
<clipPath id="clip0_108_1600">
<rect width="19" height="34" fill="white"/>
</clipPath>
</defs>
</svg>
