<svg width="27" height="27" viewBox="0 0 27 27" fill="none" xmlns="http://www.w3.org/2000/svg">
<g clip-path="url(#clip0_108_1590)">
<path d="M18 9C13.029 9 9 13.029 9 18C9 22.971 13.029 27 18 27C22.971 27 27 22.971 27 18C27 13.029 22.971 9 18 9ZM18.153 17.328C20.352 17.823 21.468 18.804 21.468 20.247C21.468 21.69 20.274 22.851 18.693 23.121V24.723H17.307V23.121C15.726 22.848 14.532 21.663 14.532 20.247H15.918C15.918 21.087 16.872 21.798 18 21.798C19.128 21.798 20.082 21.087 20.082 20.247C20.082 19.983 20.082 19.179 17.85 18.678C15.651 18.183 14.535 17.202 14.535 15.759C14.535 14.316 15.729 13.155 17.31 12.885V11.277H18.696V12.885C20.277 13.158 21.471 14.343 21.471 15.759H20.085C20.085 14.919 19.131 14.208 18.003 14.208C16.875 14.208 15.921 14.919 15.921 15.759C15.921 16.023 15.921 16.827 18.153 17.328Z" fill="black"/>
<path d="M1.8 22.6139V19.0109C3.312 19.8989 5.631 20.4839 8.181 20.7539C8.013 20.1509 7.899 19.5359 7.845 18.9149C3.909 18.4289 1.803 17.2289 1.803 16.5419V12.9359C3.351 13.8449 5.739 14.4359 8.355 14.6969C8.562 14.0969 8.823 13.5179 9.138 12.9659C4.374 12.6089 1.803 11.2229 1.803 10.4639V6.86093C3.957 8.12693 7.743 8.77793 11.499 8.77793C12.288 8.77793 13.074 8.74793 13.848 8.69093C15.156 8.10593 16.572 7.80293 18.003 7.80293C18.282 7.80293 18.558 7.81793 18.834 7.83893C19.656 7.60793 20.448 7.27793 21.192 6.86093V8.31593C21.816 8.52293 22.419 8.78693 22.992 9.11093V4.38893C22.992 1.50893 17.208 0.00292969 11.496 0.00292969C5.784 0.00292969 0 1.50593 0 4.38593V22.6109C0 25.4909 5.784 26.9969 11.496 26.9969C12.042 26.9969 12.588 26.9819 13.128 26.9549C12.264 26.4809 11.469 25.8869 10.776 25.1879C4.962 25.0619 1.803 23.4539 1.803 22.6109L1.8 22.6139ZM11.496 1.79993C17.769 1.79993 21.192 3.50993 21.192 4.38893C21.192 5.26793 17.769 6.97793 11.496 6.97793C5.223 6.97793 1.8 5.26493 1.8 4.38893C1.8 3.51293 5.223 1.79993 11.496 1.79993Z" fill="black"/>
</g>
<defs>
<clipPath id="clip0_108_1590">
<rect width="27" height="27" fill="white"/>
</clipPath>
</defs>
</svg>
